# xmcd CD database file
#
# Track frame offsets:
#	200
#	15867
#	32452
#	46190
#	59592
#	73272
#	84937
#	99802
#	116142
#	129137
#
# Disc length: 1925 seconds
#
# Revision: 0
# Processed by: cddbd v1.5.2PL0 Copyright (c) Steve Scherf et al.
# Submitted via: NeoAudio 9.9.9
#
DISCID=7007830a
DTITLE=Ronnie Collins - Time For Change
DYEAR=1993
DGENRE=Country
TTITLE0=There You Have It
TTITLE1=Town Of Fewer People
TTITLE2=Time For Change
TTITLE3=Life On Land
TTITLE4=Watchin' The World Go By
TTITLE5=Mama Won't Cook
TTITLE6=On My Own Again
TTITLE7=Back To You
TTITLE8=Five O'Clock News
TTITLE9=Good Night All
EXTD=YEAR: 1993
EXTT0=
EXTT1=
EXTT2=
EXTT3=
EXTT4=
EXTT5=
EXTT6=
EXTT7=
EXTT8=
EXTT9=
PLAYORDER=
